<svg xmlns="http://www.w3.org/2000/svg" enable-background="new 206 -206 512 512" viewBox="206 -206 512 512" id="rupees-and-euro-exchange"><path d="M437.2 50c0-52.3-42.5-94.6-94.7-94.6-52.2 0-94.6 42.3-94.6 94.6.1 52.2 42.4 94.6 94.7 94.6C394.8 144.7 437.2 102.3 437.2 50zM298.8 60.8c.1-5.5 4.6-9.8 10-9.7H328c5 0 9.9-2 13.5-5.6 1-1.1 1.9-2.2 2.7-3.4h-35.6c-5.5 0-10-4.5-10-10s4.5-10 10-10h35.6c-3.4-6-9.4-9-16.2-9h-19.3c-5.5 0-10-4.5-10-10s4.5-10 10-10h67.7c5.5 0 10 4.5 10 10s-4.5 10-10 10h-14.2c1.6 2 2.9 5 3.7 9h10.5c5.5 0 10 4.5 10 10s-4.5 10-10 10H366c-1.9 6.5-5.4 12.5-10.1 17.4-6.1 6-13.9 9.8-22.3 10.9L364 99.2c2 1.9 3.1 4.5 3.1 7.3 0 5.5-4.5 10-10 10-2.6 0-5.1-.9-6.9-2.6l-48.4-45.7C299.9 66.2 298.8 63.5 298.8 60.8zM581.5-44.5C529.3-44.5 487-2.2 487 50c0 52.2 42.3 94.6 94.6 94.6s94.6-42.4 94.6-94.6C676.1-2.1 633.8-44.5 581.5-44.5zM618.8 106.2c-22.1 8.6-47.2 3.3-64-13.4C550 88 546 82.3 543 76.2h-8c-5.5 0-10-4.5-10-10s4.5-10 10-10h2.5c-.2-2-.3-4-.3-6H535c-5.5 0-10-4.5-10-10s4.5-10 10-10h5.9c2.7-8.4 7.5-16.1 13.9-22.2 16.7-16.8 41.8-22.2 64-13.8 5.1 2 7.7 7.7 5.7 12.9-2 5.1-7.7 7.7-12.9 5.7-14.8-5.6-31.5-2-42.6 9.3-2.4 2.3-4.5 5.1-6.1 8H608c5.5 0 10 4.5 10 10s-4.5 10-10 10h-50.8c0 2 .1 4 .4 6h45.1c5.5 0 10 4.5 10 10s-4.5 10-10 10h-36.2c.7.9 1.5 1.7 2.4 2.5 11.3 11.1 28 14.6 42.7 8.9 5.2-2 10.9.6 12.9 5.7C626.5 98.3 624 104.2 618.8 106.2zM328-74.3c5.5.1 9.9-4.3 10-9.8v-.1c0-19.2 15.6-34.8 34.9-34.8H551l-22.6 22.4c-3.9 3.8-3.9 10-.1 13.9l.1.1c3.9 3.9 10.2 3.9 14.1 0l39.8-39.6c3.9-3.9 3.9-10.2 0-14.1L542.5-176c-3.9-3.9-10.2-3.9-14.1 0-3.9 4-3.9 10.3 0 14.3L551-139H373c-30.3 0-54.8 24.4-54.9 54.7C318-78.8 322.5-74.3 328-74.3zM596.1 174.5C596.1 174.5 596.1 174.5 596.1 174.5c-5.5-.1-10 4.3-10.1 9.7v.1c0 19.2-15.6 34.8-34.8 34.7H373l22.6-22.4c3.9-3.8 3.9-10.1.1-14 0 0 0 0-.1-.1-3.9-3.9-10.2-3.9-14.1 0l-39.8 39.6c-3.9 3.9-3.9 10.2 0 14.2l39.8 39.6c3.9 3.9 10.2 3.9 14.1 0 3.9-4 3.9-10.3 0-14.3L373 239h178.1c30.3 0 54.8-24.4 54.9-54.7C606 179 601.6 174.5 596.1 174.5z"></path></svg>