<svg xmlns="http://www.w3.org/2000/svg" data-name="Layer 1" viewBox="0 0 512 512" id="policies"><path d="M160.5 80h191a7.5 7.5 0 0 0 0-15h-191a7.5 7.5 0 0 0 0 15Zm0 90h191a7.5 7.5 0 0 0 0-15h-191a7.5 7.5 0 0 0 0 15Zm0-45h191a7.5 7.5 0 0 0 0-15h-191a7.5 7.5 0 0 0 0 15Zm344.91-28.387-10.606-10.606a22.501 22.501 0 0 0-31.82 0L428 120.99V37.5A37.542 37.542 0 0 0 390.5 0h-269A37.542 37.542 0 0 0 84 37.5V427H43.495a7.5 7.5 0 0 0-7.5 7.5v40a37.542 37.542 0 0 0 37.5 37.5h318a7.6 7.6 0 0 0 .814-.046A37.545 37.545 0 0 0 428 474.5V205.845l77.41-77.41a22.528 22.528 0 0 0 0-31.822ZM73.495 497a22.526 22.526 0 0 1-22.5-22.5V442h299v31a38.796 38.796 0 0 0 8.293 24ZM413 434.403c0 .033-.005.064-.005.097V473a24 24 0 0 1-48 0v-38.5a7.5 7.5 0 0 0-7.5-7.5c-.169 0-.334.014-.5.025-.166-.01-.33-.025-.5-.025H99V37.5A22.526 22.526 0 0 1 121.5 15h269A22.526 22.526 0 0 1 413 37.5v98.49L273.99 275H160.5a7.5 7.5 0 0 0 0 15h98.49l-29.352 29.353a7.534 7.534 0 0 0-.552.62l-.02.027H160.5a7.5 7.5 0 0 0 0 15h63.087l-10 30H160.5a7.5 7.5 0 0 0 0 15h56a7.52 7.52 0 0 0 1.611-.178 7.264 7.264 0 0 0 3.292-.321l47.73-15.91c.05-.016.095-.04.143-.057a7.47 7.47 0 0 0 1.284-.6c.07-.041.142-.08.211-.124.17-.109.336-.227.5-.35.058-.045.12-.085.176-.13a7.545 7.545 0 0 0 .618-.55l26.78-26.78H351.5a7.5 7.5 0 0 0 0-15h-37.655L413 220.845Zm-174.781-95.862 14.657 14.657-21.986 7.33Zm28.543 7.327-21.213-21.212 180.238-180.239.031-.03 19.602-19.602 21.212 21.213Zm228.04-228.04L477.24 135.39l-21.212-21.213 17.564-17.564a7.497 7.497 0 0 1 10.605 0l10.607 10.607a7.507 7.507 0 0 1 0 10.606Z"></path></svg>