<svg xmlns="http://www.w3.org/2000/svg" viewBox="0 0 64 64"><path d="M52,5H12A3.0033,3.0033,0,0,0,9,8v4a3.0033,3.0033,0,0,0,3,3h5V58a1.0029,1.0029,0,0,0,1,1H46a1.0029,1.0029,0,0,0,1-1V15h5a3.0033,3.0033,0,0,0,3-3V8A3.0033,3.0033,0,0,0,52,5ZM19,57V53.1a2.369,2.369,0,0,1,.36.09c.11.03.23.07.33.1a5.37,5.37,0,0,1,.69.31,3.2575,3.2575,0,0,1,.4.24c.14.1.27.2.4.3a4.1012,4.1012,0,0,1,.68.68c.1.13.2.26.3.4a3.2575,3.2575,0,0,1,.24.4,5.37,5.37,0,0,1,.31.69c.03.1.07.22.1.33a2.369,2.369,0,0,1,.09.36Zm3-25A10,10,0,1,1,32,42,10.0165,10.0165,0,0,1,22,32ZM45,57H41.1a2.369,2.369,0,0,1,.09-.36c.03-.11.07-.23.1-.33a5.37,5.37,0,0,1,.31-.69,3.2575,3.2575,0,0,1,.24-.4c.1-.14.2-.27.3-.4a4.1012,4.1012,0,0,1,.68-.68c.13-.1.26-.2.4-.3a3.2575,3.2575,0,0,1,.4-.24,5.37,5.37,0,0,1,.69-.31c.1-.03.22-.07.33-.1A2.369,2.369,0,0,1,45,53.1Zm8-45a1.0013,1.0013,0,0,1-1,1H47V11h3a1,1,0,0,0,0-2H14a1,1,0,0,0,0,2h3v2H12a1.0013,1.0013,0,0,1-1-1V8a1.0013,1.0013,0,0,1,1-1H52a1.0013,1.0013,0,0,1,1,1Z"/><path d="M32,24a8,8,0,1,0,8,8A8.0106,8.0106,0,0,0,32,24Zm6,9H37v1a1,1,0,0,1-2,0V32a1,1,0,0,0-2,0,2.9951,2.9951,0,0,1-5.82,1H26a1,1,0,0,1,0-2h1V30a1,1,0,0,1,2,0v2a1,1,0,0,0,2,0,2.9951,2.9951,0,0,1,5.82-1H38a1,1,0,0,1,0,2Z"/></svg>