<svg xmlns="http://www.w3.org/2000/svg" viewBox="0 0 64 64"><path d="M34,46A14.01538,14.01538,0,0,0,48,32c-.76843-18.573-27.23436-18.5676-28,.00011A14.01544,14.01544,0,0,0,34,46Zm0-24A10.01648,10.01648,0,0,1,44,32c-.56173,13.26792-19.4403,13.264-20-.00007A10.0165,10.0165,0,0,1,34,22Z"/><path d="M34.5,36H31a1.00011,1.00011,0,0,0,0,2h2v1a1,1,0,0,0,2,0V37.96A3.50065,3.50065,0,0,0,34.4999,31H33.5a1.5,1.5,0,0,1,0-3H37a1.00011,1.00011,0,0,0,0-2H35V25a1,1,0,0,0-2,0v1.04A3.50069,3.50069,0,0,0,33.5001,33L34.5,33A1.50015,1.50015,0,0,1,34.5,36Z"/><path d="M54,2H11A3.99891,3.99891,0,0,0,7,6v8h3.18a2.99591,2.99591,0,1,1,0,2H7v9h3.18a2.99591,2.99591,0,1,1,0,2H7v9h3.18a2.99591,2.99591,0,1,1,0,2H7v9h3.18a2.99591,2.99591,0,1,1,0,2H7v9a3.999,3.999,0,0,0,4,4H54a3.99891,3.99891,0,0,0,4-4V6A3.99887,3.99887,0,0,0,54,2ZM34,16A16.02123,16.02123,0,0,1,50,32c-.8824,21.22556-31.12084,21.21938-32-.00012A16.02125,16.02125,0,0,1,34,16ZM56,58a2.10867,2.10867,0,0,1-2.54,2A3.98982,3.98982,0,0,0,54,58V6a3.98948,3.98948,0,0,0-.54-2A2.10856,2.10856,0,0,1,56,6.00005Z"/><path d="M13 16a1.00011 1.00011 0 000-2A1.00011 1.00011 0 0013 16zM6 15a1.003 1.003 0 001 1V14A1.003 1.003 0 006 15zM13 27a1.00011 1.00011 0 000-2A1.00011 1.00011 0 0013 27zM6 26a1.003 1.003 0 001 1V25A1.003 1.003 0 006 26zM13 38a1.00011 1.00011 0 000-2A1.00011 1.00011 0 0013 38zM6 37a1.003 1.003 0 001 1V36A1.003 1.003 0 006 37zM13 49a1.00011 1.00011 0 000-2A1.00011 1.00011 0 0013 49zM6 48a1.003 1.003 0 001 1V47A1.003 1.003 0 006 48z"/></svg>